<?xml version="1.0" encoding="UTF-8"?>
<svg width="40" height="40" viewBox="0 0 40 40" fill="none" xmlns="http://www.w3.org/2000/svg">
    <rect width="40" height="40" rx="8" fill="#4B5563"/>
    <path d="M20 8C13.373 8 8 13.373 8 20C8 26.627 13.373 32 20 32C26.627 32 32 26.627 32 20C32 13.373 26.627 8 20 8Z" fill="#10B981"/>
    <path d="M20 12C15.582 12 12 15.582 12 20C12 24.418 15.582 28 20 28C24.418 28 28 24.418 28 20C28 15.582 24.418 12 20 12Z" fill="#FFFFFF"/>
    <path d="M18 16H22C22.552 16 23 16.448 23 17V19C23 19.552 22.552 20 22 20H20V23C20 23.552 19.552 24 19 24C18.448 24 18 23.552 18 23V16Z" fill="#10B981"/>
    <circle cx="25" cy="22" r="2" fill="#10B981"/>
</svg>